<?xml version="1.0" standalone="no"?>
<!DOCTYPE svg PUBLIC "-//W3C//DTD SVG 20010904//EN"
 "http://www.w3.org/TR/2001/REC-SVG-20010904/DTD/svg10.dtd">
<svg version="1.0" xmlns="http://www.w3.org/2000/svg"
 width="557.000000pt" height="448.000000pt" viewBox="0 0 557.000000 448.000000"
 preserveAspectRatio="xMidYMid meet">

<g transform="translate(0.000000,448.000000) scale(0.100000,-0.100000)"
fill="#000000" stroke="none">
<path d="M2535 4166 c-64 -16 -91 -31 -107 -59 -9 -15 -15 -92 -18 -252 l-5
-230 -230 -5 c-194 -4 -235 -8 -262 -22 -18 -10 -33 -18 -35 -18 -2 0 -3 55
-3 123 0 121 -1 124 -29 161 -48 63 -80 78 -164 74 -72 -3 -75 -5 -112 -44
-48 -52 -60 -105 -60 -264 0 -66 -4 -120 -8 -120 -5 0 -17 10 -28 21 -65 74
-205 77 -275 6 -141 -140 -53 -377 139 -377 48 0 83 18 135 68 l47 46 0 -112
c0 -62 -4 -112 -9 -112 -5 0 -19 14 -31 30 -12 17 -35 37 -51 46 -27 13 -33
13 -63 -1 -19 -9 -60 -44 -92 -78 -32 -34 -119 -125 -195 -203 -82 -84 -141
-152 -145 -169 -12 -46 24 -100 182 -270 155 -168 234 -235 278 -235 17 0 42
16 73 45 25 25 48 45 50 45 2 0 3 -47 3 -105 0 -58 -4 -105 -8 -105 -5 0 -15
11 -22 25 -18 34 -104 75 -155 75 -25 0 -63 -11 -96 -27 -188 -96 -117 -404
93 -403 55 1 117 29 151 69 15 18 28 27 28 19 1 -7 2 -94 3 -194 l1 -180 29
-38 c41 -54 82 -76 141 -76 70 0 122 32 163 100 30 50 32 61 32 142 0 48 2 88
4 88 3 0 21 -9 40 -21 19 -11 60 -23 90 -26 70 -7 74 -28 14 -61 -66 -34 -117
-123 -117 -202 -1 -46 28 -108 69 -149 42 -41 67 -51 136 -51 123 0 204 86
204 217 0 77 -28 133 -91 179 -27 19 -47 40 -43 45 8 14 188 11 202 -3 8 -8
12 -58 12 -157 0 -81 5 -164 10 -186 16 -69 76 -102 211 -112 89 -7 199 21
245 61 26 21 28 30 35 132 4 60 8 146 8 190 l1 82 118 7 c71 4 129 13 147 22
45 23 207 137 229 162 10 11 23 18 27 15 5 -3 9 -80 9 -171 0 -158 1 -167 26
-212 70 -129 251 -128 321 2 15 26 19 63 21 215 2 100 5 182 6 182 2 0 21 -18
44 -40 54 -50 110 -67 172 -51 73 20 106 46 139 113 39 77 40 126 5 197 -30
60 -90 105 -154 116 -49 8 -120 -21 -172 -72 l-37 -36 -3 108 c-2 59 0 109 3
110 3 2 30 -16 60 -40 79 -65 107 -60 218 41 86 78 278 290 307 340 26 44 26
47 11 80 -23 48 -403 443 -433 450 -26 7 -80 -24 -124 -71 -13 -14 -27 -25
-32 -25 -4 0 -8 51 -8 113 1 90 3 109 13 96 7 -8 34 -32 60 -52 64 -49 118
-50 194 -7 91 52 130 144 109 255 -9 45 -68 112 -121 136 -74 34 -137 22 -215
-43 l-35 -28 -5 163 c-5 159 -6 165 -33 206 -31 46 -91 81 -142 81 -74 0 -160
-70 -184 -149 -6 -23 -11 -117 -11 -235 l0 -197 -56 60 c-30 33 -92 85 -137
115 -89 60 -146 76 -274 76 l-63 0 0 203 c0 111 -5 218 -10 238 -13 45 -53 84
-109 104 -52 18 -184 19 -256 1z m248 -89 c26 -17 27 -21 27 -106 0 -48 3
-169 7 -269 l6 -181 132 -3 c131 -3 133 -3 208 -42 52 -26 95 -58 137 -101 99
-104 135 -208 128 -369 -3 -80 -9 -101 -40 -167 -35 -72 -93 -138 -157 -180
l-24 -15 45 -27 c162 -95 241 -315 194 -539 -52 -241 -221 -371 -505 -386
l-125 -7 3 -217 3 -217 -53 -15 c-29 -9 -73 -16 -98 -16 -61 0 -161 25 -172
41 -4 8 -5 32 -2 55 3 24 2 116 -2 206 l-7 163 -206 2 c-249 3 -296 8 -328 37
l-24 21 -1 342 c-1 262 1 346 11 358 19 23 292 22 311 -2 10 -12 15 -61 17
-190 l4 -173 339 0 c321 0 342 1 379 20 52 26 80 81 80 153 0 61 -27 106 -90
148 -34 23 -42 24 -258 27 l-223 3 -11 27 c-9 25 -6 328 4 338 3 2 109 7 236
12 l232 8 35 34 c89 86 67 217 -44 273 -45 21 -54 22 -364 21 l-319 0 -5 -155
c-3 -101 -9 -156 -16 -161 -17 -11 -289 -9 -306 1 -12 8 -14 63 -14 329 1 215
5 327 13 341 10 20 17 21 275 21 200 0 266 3 272 13 4 6 10 133 13 282 l5 270
30 7 c17 4 73 6 126 5 71 -2 102 -7 122 -20z m-1025 -263 l22 -25 0 -384 0
-384 -22 -25 c-35 -38 -69 -42 -104 -13 l-29 25 -7 388 c-7 341 -6 391 8 412
31 48 92 51 132 6z m1922 9 l31 -28 0 -390 -1 -390 -26 -22 c-14 -13 -38 -23
-53 -23 -31 0 -81 42 -82 69 0 9 -1 179 -2 379 -2 383 -1 393 44 418 36 20 55
17 89 -13z m-2276 -350 c46 -34 58 -90 31 -143 -21 -42 -53 -60 -103 -60 -37
0 -50 6 -78 34 -38 38 -44 77 -19 127 34 65 112 85 169 42z m2660 -13 c20 -20
30 -40 33 -74 7 -56 -13 -91 -64 -112 -43 -18 -83 -11 -123 23 -26 22 -30 31
-30 77 0 60 18 92 64 112 41 18 84 9 120 -26z m-1165 -416 c52 -11 84 -101 44
-123 -10 -5 -125 -12 -255 -16 -213 -7 -239 -10 -257 -27 -32 -29 -35 -58 -36
-268 0 -287 -8 -280 323 -280 241 0 237 1 262 -64 9 -25 8 -34 -8 -55 l-19
-26 -296 0 c-231 0 -298 3 -302 13 -2 7 -2 68 1 135 6 116 5 123 -16 150 -41
52 -72 60 -241 65 -232 7 -263 -11 -264 -150 0 -71 -4 -78 -26 -52 -20 25 -65
44 -102 44 l-34 0 98 98 c117 117 129 148 83 210 -16 20 -52 59 -81 86 -54 50
-64 66 -40 66 8 0 32 13 55 30 l41 29 7 -47 c8 -55 24 -90 53 -116 19 -18 39
-19 207 -20 l185 -1 35 37 34 38 0 118 c0 65 3 122 7 125 8 9 500 9 542 1z
m-1388 -124 l103 -100 -49 -50 -49 -50 -30 37 c-17 21 -38 46 -48 58 -16 20
-16 20 -40 -10 -12 -17 -37 -46 -55 -65 l-31 -35 -26 24 c-14 13 -37 41 -52
63 l-27 39 75 77 c41 42 81 85 89 94 8 10 19 17 25 18 6 0 58 -45 115 -100z
m2536 8 c46 -46 83 -89 83 -98 0 -8 -18 -34 -40 -57 l-40 -42 -35 37 c-19 20
-35 40 -35 45 0 20 -30 1 -73 -48 -27 -30 -52 -55 -56 -55 -4 0 -28 28 -52 63
l-45 62 95 88 c53 48 100 87 106 87 5 0 47 -37 92 -82z m-497 -48 c23 -22 42
-30 69 -31 32 0 34 -1 16 -12 -26 -16 -90 -82 -126 -131 -37 -50 -38 -91 0
-142 29 -40 116 -125 161 -157 l25 -18 -27 6 c-15 3 -47 -2 -70 -10 -24 -8
-46 -15 -49 -15 -4 0 -14 21 -24 48 -22 57 -92 168 -129 201 -14 14 -26 28
-26 33 0 5 13 26 30 46 37 47 100 168 100 193 0 27 13 24 50 -11z m-2361 -186
l55 -55 -57 -57 -57 -56 -56 58 -55 59 52 53 c30 30 56 54 59 54 3 0 29 -25
59 -56z m271 -8 c-1 -14 -46 -66 -58 -66 -4 0 -23 15 -41 34 l-32 33 38 31 38
31 28 -27 c15 -14 27 -31 27 -36z m2279 6 l50 -59 -50 -51 c-28 -29 -55 -52
-59 -52 -5 0 -23 19 -41 43 -19 23 -42 48 -52 55 -17 13 -15 17 30 67 26 29
53 53 60 54 6 1 34 -25 62 -57z m525 3 c52 -60 52 -59 -8 -125 l-39 -43 -34
39 c-70 80 -69 75 -17 132 26 29 48 52 49 52 2 0 24 -25 49 -55z m-2560 33 c7
-7 29 -28 50 -46 l37 -33 -31 -39 c-30 -38 -67 -70 -81 -70 -4 0 -27 24 -53
54 l-46 54 47 46 c51 50 58 53 77 34z m2281 -24 c14 -15 25 -30 25 -34 0 -3
-13 -18 -28 -33 l-28 -27 -34 35 -34 35 24 25 c30 32 45 31 75 -1z m-2385
-227 c0 -3 -26 -30 -57 -59 -32 -29 -79 -74 -104 -99 l-47 -47 -91 92 c-50 50
-91 96 -91 102 0 5 23 32 50 59 l50 49 49 -48 48 -48 47 55 47 54 50 -52 c27
-28 49 -55 49 -58z m2300 53 c17 -22 38 -40 47 -40 8 0 31 18 50 40 20 22 40
40 44 40 10 0 109 -100 109 -111 0 -4 -9 -14 -21 -22 -11 -9 -54 -47 -94 -86
-41 -39 -78 -71 -82 -71 -11 0 -193 176 -193 186 0 10 92 104 101 104 4 0 22
-18 39 -40z m-2148 -267 l28 -27 0 -392 0 -393 -26 -20 c-39 -30 -80 -27 -116
10 l-31 31 6 156 c4 86 7 260 7 385 l0 228 25 24 c32 33 72 32 107 -2z m1942
4 l23 -23 -3 -394 -4 -395 -26 -22 c-36 -32 -79 -30 -115 6 l-29 29 1 199 c0
109 4 283 7 386 l7 189 28 24 c36 31 81 31 111 1z m-2284 -246 c53 -52 52
-131 -1 -175 -43 -37 -73 -42 -120 -20 -47 21 -69 57 -69 115 0 33 6 47 34 75
29 29 41 34 81 34 38 0 52 -5 75 -29z m2653 2 c56 -50 54 -138 -4 -187 -100
-85 -237 63 -152 164 14 18 36 36 47 41 29 12 85 3 109 -18z m-1878 -575 c65
-51 68 -136 7 -189 -31 -27 -41 -31 -79 -26 -51 5 -87 35 -103 82 -13 41 9
105 48 135 33 27 92 26 127 -2z"/>
<path d="M2045 4082 c-142 -68 -167 -248 -50 -351 135 -118 297 -57 335 125
14 64 7 106 -25 155 -47 73 -180 109 -260 71z m135 -88 c82 -49 78 -175 -7
-210 -46 -20 -91 -5 -133 42 -33 38 -38 70 -15 114 33 64 98 87 155 54z"/>
<path d="M3110 4084 c-107 -46 -159 -183 -111 -290 22 -47 116 -129 160 -139
73 -16 178 51 221 140 25 52 28 136 7 186 -41 95 -177 146 -277 103z m168
-120 c46 -54 45 -100 -6 -154 -31 -31 -46 -40 -73 -40 -86 0 -151 98 -114 170
41 79 135 91 193 24z"/>
<path d="M3130 1567 c-87 -39 -150 -130 -150 -216 0 -151 183 -258 320 -188
75 37 119 125 106 211 -11 73 -60 135 -136 173 -68 35 -99 39 -140 20z m106
-103 c44 -21 74 -70 74 -124 0 -35 -6 -48 -35 -77 -33 -33 -39 -35 -83 -29
-123 16 -154 163 -47 227 37 23 48 23 91 3z"/>
<path d="M1288 936 c-69 -20 -130 -59 -181 -116 l-45 -50 -20 34 c-52 88 -157
127 -363 134 -162 5 -206 -3 -239 -45 -19 -25 -20 -40 -20 -380 0 -387 2 -398
58 -426 77 -39 162 -28 211 28 26 30 31 44 31 84 l0 49 43 7 c94 14 149 36
192 76 43 40 65 44 65 12 0 -31 64 -134 112 -179 159 -149 367 -130 533 47
l47 50 16 -23 c32 -48 111 -116 163 -141 124 -60 292 -53 392 16 l28 19 27
-25 c38 -36 109 -53 159 -37 76 25 103 70 112 185 l6 80 41 3 c39 3 42 1 48
-29 3 -17 6 -64 6 -104 0 -86 17 -115 78 -133 54 -16 93 -15 120 4 19 13 32
14 96 3 70 -11 77 -10 121 11 35 17 53 35 73 71 27 48 27 48 91 55 72 8 70 9
134 -86 34 -51 64 -63 147 -58 72 4 109 24 132 72 l14 28 30 -25 c138 -116
344 -123 495 -15 13 9 22 5 46 -22 29 -33 31 -33 154 -42 151 -12 346 -6 376
10 12 7 34 32 48 56 21 36 25 55 25 120 0 74 -1 78 -31 106 l-31 28 23 32 c32
42 31 123 0 176 -12 21 -18 40 -13 43 5 3 19 22 31 41 16 27 21 51 21 110 0
141 -20 150 -322 150 -203 0 -226 -2 -255 -19 -17 -11 -34 -29 -38 -40 -8 -27
-16 -26 -61 4 -21 14 -69 35 -108 47 -64 19 -77 20 -140 9 -92 -15 -175 -61
-240 -132 -54 -58 -101 -141 -112 -199 -4 -16 -10 -30 -14 -30 -3 0 -39 66
-79 148 -40 81 -85 159 -99 175 -33 34 -85 49 -135 38 -77 -18 -100 -46 -151
-191 -28 -77 -95 -210 -107 -210 -8 0 -19 139 -19 238 0 126 -36 162 -162 162
-119 0 -148 -36 -148 -185 l0 -86 -47 3 -48 3 4 81 c2 67 -1 89 -18 122 -27
53 -48 63 -127 64 -75 0 -117 -14 -139 -48 l-16 -24 -27 20 c-94 68 -289 66
-402 -5 -40 -26 -104 -86 -126 -120 l-15 -23 -63 63 c-117 116 -265 166 -388
131z m176 -88 c27 -8 63 -33 104 -73 62 -61 62 -61 62 -119 0 -47 5 -65 29
-100 l29 -42 -34 -37 c-20 -20 -39 -37 -43 -37 -4 0 -22 16 -41 35 l-33 34 36
41 c21 22 37 44 37 49 0 5 3 16 6 25 11 29 -43 19 -78 -14 -17 -17 -38 -30
-47 -30 -10 0 -35 18 -56 40 -21 22 -44 40 -49 40 -6 0 -29 -21 -52 -46 -41
-44 -43 -45 -66 -30 -12 9 -43 36 -67 60 -41 42 -43 45 -32 78 13 41 60 88
116 116 46 24 118 28 179 10z m744 -12 c42 -21 112 -85 112 -100 -1 -6 -18
-31 -39 -55 l-39 -44 -34 21 c-104 65 -230 36 -278 -64 -26 -53 -25 -108 4
-170 45 -97 150 -130 250 -79 l55 28 40 -33 c23 -17 41 -40 41 -49 0 -27 -55
-98 -90 -116 -17 -9 -55 -20 -85 -26 -141 -26 -325 78 -370 209 -43 128 -27
265 44 359 43 56 129 118 186 132 57 14 164 7 203 -13z m304 6 c4 -4 10 -62
14 -130 l7 -123 116 3 116 3 10 125 10 125 38 10 c30 7 45 5 65 -6 l27 -15 7
-294 c8 -311 4 -361 -33 -381 -29 -15 -85 -2 -104 24 -11 16 -15 49 -15 134
l0 113 -117 -5 -118 -5 -5 -122 c-5 -118 -6 -123 -30 -135 -34 -17 -71 -16
-98 3 -22 15 -22 15 -22 345 l0 330 23 9 c23 10 97 4 109 -8z m1632 -11 c43
-19 116 -85 116 -106 0 -6 -17 -28 -38 -48 l-39 -38 -54 26 c-186 86 -349 -62
-265 -241 45 -97 147 -126 265 -74 l54 24 36 -21 c47 -27 52 -61 17 -114 -43
-64 -93 -84 -211 -84 -90 0 -106 3 -157 29 -67 33 -128 90 -154 144 -26 53
-32 230 -10 305 28 97 131 188 243 217 52 13 146 4 197 -19z m-3292 9 c56 -16
120 -69 146 -121 66 -132 22 -262 -109 -328 -55 -27 -72 -31 -145 -31 l-82 0
-4 -90 c-1 -50 -8 -94 -15 -101 -6 -6 -31 -14 -56 -16 -36 -4 -49 -1 -66 16
-20 20 -21 29 -21 335 0 173 3 321 6 330 5 14 29 16 158 16 83 0 168 -5 188
-10z m2538 -22 c23 -35 160 -347 216 -488 54 -138 45 -170 -50 -170 -51 0 -66
14 -104 96 l-23 49 -126 -1 -125 -2 -19 -42 c-10 -23 -19 -48 -19 -55 0 -47
-102 -67 -142 -28 l-21 22 28 78 c32 90 50 130 152 343 41 85 82 172 90 193
15 36 16 37 69 37 50 0 55 -2 74 -32z m1418 -31 c2 -35 -2 -64 -9 -73 -9 -11
-44 -14 -160 -14 l-149 0 0 -60 0 -59 143 -3 142 -3 3 -49 c6 -99 12 -95 -151
-98 l-142 -3 0 -50 0 -50 149 -3 c90 -1 155 -7 163 -14 15 -12 18 -115 3 -138
-8 -12 -46 -16 -224 -18 l-215 -3 -17 25 c-15 23 -16 59 -12 335 2 242 6 312
17 325 12 14 39 16 235 14 l221 -3 3 -58z m-2647 -213 c48 -30 65 -36 94 -31
l35 6 0 -60 c0 -54 -10 -74 -25 -49 -10 17 -61 11 -88 -10 -45 -35 -81 -43
-115 -26 -40 21 -82 72 -82 100 0 31 36 75 74 92 42 18 41 19 107 -22z m1931
0 c48 -24 79 -34 94 -30 13 3 36 9 50 12 l27 7 -5 -57 c-6 -72 -17 -84 -62
-68 -31 12 -40 10 -85 -13 -28 -14 -63 -25 -79 -25 -40 0 -92 56 -99 107 -5
35 -2 42 31 71 20 18 41 32 47 32 5 0 42 -16 81 -36z m-2862 -74 c0 -3 -15
-21 -33 -38 l-34 -33 -46 47 c-47 46 -47 46 -28 70 10 13 21 21 24 18 3 -3 11
5 18 17 12 23 12 23 56 -26 23 -27 43 -52 43 -55z m174 59 c14 -11 26 -26 26
-33 0 -19 -49 -61 -58 -50 -4 5 -18 21 -31 36 l-24 27 24 20 c30 25 31 25 63
0z m154 -172 c30 -27 49 -36 63 -32 15 5 18 3 12 -12 -24 -67 -96 -142 -163
-172 -67 -30 -116 -27 -198 15 -68 34 -102 66 -116 109 -6 22 37 84 94 131
l33 28 42 -47 c22 -26 46 -47 52 -47 6 0 30 23 53 50 42 50 43 51 64 33 11
-11 40 -36 64 -56z"/>
<path d="M660 609 l0 -92 77 7 c59 5 82 11 100 28 32 30 32 90 -2 123 -21 22
-33 25 -100 25 l-75 0 0 -91z m115 -20 c9 -13 5 -16 -20 -21 -12 -2 -21 3 -23
15 -4 19 32 25 43 6z"/>
<path d="M3291 593 c-7 -16 -23 -56 -36 -90 l-24 -62 85 -3 c46 -2 84 0 84 4
0 13 -84 178 -91 178 -3 0 -11 -12 -18 -27z"/>
</g>
</svg>
